<?xml version="1.0" encoding="UTF-8" standalone="no"?><svg xmlns="http://www.w3.org/2000/svg" xmlns:xlink="http://www.w3.org/1999/xlink" contentScriptType="application/ecmascript" contentStyleType="text/css" height="402px" preserveAspectRatio="none" style="width:702px;height:402px;" version="1.1" viewBox="0 0 702 402" width="702px" zoomAndPan="magnify"><defs><filter height="300%" id="f1bakh15ycntvk" width="300%" x="-1" y="-1"><feGaussianBlur result="blurOut" stdDeviation="2.0"/><feColorMatrix in="blurOut" result="blurOut2" type="matrix" values="0 0 0 0 0 0 0 0 0 0 0 0 0 0 0 0 0 0 .4 0"/><feOffset dx="4.0" dy="4.0" in="blurOut2" result="blurOut3"/><feBlend in="SourceGraphic" in2="blurOut3" mode="normal"/></filter></defs><g><rect fill="#FFFFFF" filter="url(#f1bakh15ycntvk)" height="171.5301" style="stroke: #A80036; stroke-width: 1.0;" width="10" x="295" y="122.7739"/><rect fill="#FFFFFF" filter="url(#f1bakh15ycntvk)" height="31.706" style="stroke: #A80036; stroke-width: 1.0;" width="10" x="503" y="154.4799"/><line style="stroke: #A80036; stroke-width: 1.0; stroke-dasharray: 5.0,5.0;" x1="53" x2="53" y1="89.0679" y2="312.304"/><line style="stroke: #A80036; stroke-width: 1.0; stroke-dasharray: 5.0,5.0;" x1="299.5" x2="299.5" y1="89.0679" y2="312.304"/><line style="stroke: #A80036; stroke-width: 1.0; stroke-dasharray: 5.0,5.0;" x1="507.5" x2="507.5" y1="89.0679" y2="312.304"/><line style="stroke: #A80036; stroke-width: 1.0; stroke-dasharray: 5.0,5.0;" x1="628.5" x2="628.5" y1="89.0679" y2="312.304"/><text fill="#000000" font-family="sans-serif" font-size="14" lengthAdjust="spacingAndGlyphs" textLength="84" x="8" y="84.9659">Prawodawca</text><ellipse cx="53" cy="13" fill="#FEFECE" filter="url(#f1bakh15ycntvk)" rx="8" ry="8" style="stroke: #A80036; stroke-width: 2.0;"/><path d="M53,21 L53,48 M40,29 L66,29 M53,48 L40,63 M53,48 L66,63 " fill="none" filter="url(#f1bakh15ycntvk)" style="stroke: #A80036; stroke-width: 2.0;"/><text fill="#000000" font-family="sans-serif" font-size="14" lengthAdjust="spacingAndGlyphs" textLength="84" x="8" y="326.27">Prawodawca</text><ellipse cx="53" cy="340.3719" fill="#FEFECE" filter="url(#f1bakh15ycntvk)" rx="8" ry="8" style="stroke: #A80036; stroke-width: 2.0;"/><path d="M53,348.3719 L53,375.3719 M40,356.3719 L66,356.3719 M53,375.3719 L40,390.3719 M53,375.3719 L66,390.3719 " fill="none" filter="url(#f1bakh15ycntvk)" style="stroke: #A80036; stroke-width: 2.0;"/><rect fill="#FEFECE" filter="url(#f1bakh15ycntvk)" height="33.0679" style="stroke: #A80036; stroke-width: 1.5;" width="103" x="246.5" y="51"/><text fill="#000000" font-family="sans-serif" font-size="14" lengthAdjust="spacingAndGlyphs" textLength="89" x="253.5" y="72.9659">Interfejs SOK</text><rect fill="#FEFECE" filter="url(#f1bakh15ycntvk)" height="33.0679" style="stroke: #A80036; stroke-width: 1.5;" width="103" x="246.5" y="311.304"/><text fill="#000000" font-family="sans-serif" font-size="14" lengthAdjust="spacingAndGlyphs" textLength="89" x="253.5" y="333.27">Interfejs SOK</text><rect fill="#FEFECE" filter="url(#f1bakh15ycntvk)" height="33.0679" style="stroke: #A80036; stroke-width: 1.5;" width="83" x="464.5" y="51"/><text fill="#000000" font-family="sans-serif" font-size="14" lengthAdjust="spacingAndGlyphs" textLength="69" x="471.5" y="72.9659">Translator</text><rect fill="#FEFECE" filter="url(#f1bakh15ycntvk)" height="33.0679" style="stroke: #A80036; stroke-width: 1.5;" width="83" x="464.5" y="311.304"/><text fill="#000000" font-family="sans-serif" font-size="14" lengthAdjust="spacingAndGlyphs" textLength="69" x="471.5" y="333.27">Translator</text><rect fill="#FEFECE" filter="url(#f1bakh15ycntvk)" height="33.0679" style="stroke: #A80036; stroke-width: 1.5;" width="130" x="561.5" y="51"/><text fill="#000000" font-family="sans-serif" font-size="14" lengthAdjust="spacingAndGlyphs" textLength="116" x="568.5" y="72.9659">Baza Aksjomatów</text><rect fill="#FEFECE" filter="url(#f1bakh15ycntvk)" height="33.0679" style="stroke: #A80036; stroke-width: 1.5;" width="130" x="561.5" y="311.304"/><text fill="#000000" font-family="sans-serif" font-size="14" lengthAdjust="spacingAndGlyphs" textLength="116" x="568.5" y="333.27">Baza Aksjomatów</text><rect fill="#FFFFFF" filter="url(#f1bakh15ycntvk)" height="171.5301" style="stroke: #A80036; stroke-width: 1.0;" width="10" x="295" y="122.7739"/><rect fill="#FFFFFF" filter="url(#f1bakh15ycntvk)" height="31.706" style="stroke: #A80036; stroke-width: 1.0;" width="10" x="503" y="154.4799"/><polygon fill="#A80036" points="283,118.7739,293,122.7739,283,126.7739,287,122.7739" style="stroke: #A80036; stroke-width: 1.0;"/><line style="stroke: #A80036; stroke-width: 1.0;" x1="53" x2="289" y1="122.7739" y2="122.7739"/><text fill="#000000" font-family="sans-serif" font-size="13" lengthAdjust="spacingAndGlyphs" textLength="217" x="60" y="116.9649">Wprowadź projekt + dowód logiczny</text><polygon fill="#A80036" points="491,150.4799,501,154.4799,491,158.4799,495,154.4799" style="stroke: #A80036; stroke-width: 1.0;"/><line style="stroke: #A80036; stroke-width: 1.0;" x1="305" x2="497" y1="154.4799" y2="154.4799"/><text fill="#000000" font-family="sans-serif" font-size="13" lengthAdjust="spacingAndGlyphs" textLength="141" x="312" y="148.6709">Translacja na predykaty</text><polygon fill="#A80036" points="316,182.186,306,186.186,316,190.186,312,186.186" style="stroke: #A80036; stroke-width: 1.0;"/><line style="stroke: #A80036; stroke-width: 1.0; stroke-dasharray: 2.0,2.0;" x1="310" x2="507" y1="186.186" y2="186.186"/><text fill="#000000" font-family="sans-serif" font-size="13" lengthAdjust="spacingAndGlyphs" textLength="103" x="322" y="180.377">Lista predykatów</text><line style="stroke: #A80036; stroke-width: 1.0;" x1="305" x2="347" y1="217.892" y2="217.892"/><line style="stroke: #A80036; stroke-width: 1.0;" x1="347" x2="347" y1="217.892" y2="230.892"/><line style="stroke: #A80036; stroke-width: 1.0;" x1="306" x2="347" y1="230.892" y2="230.892"/><polygon fill="#A80036" points="316,226.892,306,230.892,316,234.892,312,230.892" style="stroke: #A80036; stroke-width: 1.0;"/><text fill="#000000" font-family="sans-serif" font-size="13" lengthAdjust="spacingAndGlyphs" textLength="184" x="312" y="212.083">Sprawdź kompletność (Art. 5.5)</text><polygon fill="#A80036" points="616.5,258.598,626.5,262.598,616.5,266.598,620.5,262.598" style="stroke: #A80036; stroke-width: 1.0;"/><line style="stroke: #A80036; stroke-width: 1.0;" x1="305" x2="622.5" y1="262.598" y2="262.598"/><text fill="#000000" font-family="sans-serif" font-size="13" lengthAdjust="spacingAndGlyphs" textLength="218" x="312" y="256.789">Zarejestruj projekt (stan: weryfikacja)</text><polygon fill="#A80036" points="64,290.304,54,294.304,64,298.304,60,294.304" style="stroke: #A80036; stroke-width: 1.0;"/><line style="stroke: #A80036; stroke-width: 1.0; stroke-dasharray: 2.0,2.0;" x1="58" x2="299" y1="294.304" y2="294.304"/><text fill="#000000" font-family="sans-serif" font-size="13" lengthAdjust="spacingAndGlyphs" textLength="218" x="70" y="288.495">Potwierdzenie przyjęcia (ID projektu)</text><!--MD5=[ba7aae902c2bd131633b469043b64a6f]
@startuml
actor Prawodawca
participant "Interfejs SOK" as UI
participant "Translator" as TR
participant "Baza Aksjomatów" as DB

Prawodawca -> UI: Wprowadź projekt + dowód logiczny
activate UI
UI -> TR: Translacja na predykaty
activate TR
TR - -> UI: Lista predykatów
deactivate TR
UI -> UI: Sprawdź kompletność (Art. 5.5)
UI -> DB: Zarejestruj projekt (stan: weryfikacja)
UI - -> Prawodawca: Potwierdzenie przyjęcia (ID projektu)
deactivate UI
@enduml

PlantUML version 1.2020.02(Sun Mar 01 11:22:07 CET 2020)
(GPL source distribution)
Java Runtime: OpenJDK Runtime Environment
JVM: OpenJDK 64-Bit Server VM
Java Version: 21.0.11+10-1-24.04.2-Ubuntu
Operating System: Linux
Default Encoding: UTF-8
Language: pl
Country: PL
--></g></svg>